<svg width="776" height="250" viewBox="0 0 776 250" fill="none" xmlns="http://www.w3.org/2000/svg">
<rect width="776" height="250" fill="white"/>
<path d="M0 0H776V193C432.222 177.001 226 15.44 0 193L0 0Z" fill="#FF0000"/>
<path d="M0 173C231.5 45.1876 359 -117.897 776 172V202.932V250H0V173Z" fill="#5E5B86"/>
<path d="M165.312 148V103.2H187.2C192.832 103.2 197.056 104.267 199.872 106.4C202.731 108.533 204.16 111.349 204.16 114.848C204.16 117.195 203.584 119.243 202.432 120.992C201.28 122.699 199.701 124.021 197.696 124.96C195.691 125.899 193.387 126.368 190.784 126.368L192 123.744C194.816 123.744 197.312 124.213 199.488 125.152C201.664 126.048 203.349 127.392 204.544 129.184C205.781 130.976 206.4 133.173 206.4 135.776C206.4 139.616 204.885 142.624 201.856 144.8C198.827 146.933 194.368 148 188.48 148H165.312ZM175.616 140.192H187.712C190.4 140.192 192.427 139.765 193.792 138.912C195.2 138.016 195.904 136.608 195.904 134.688C195.904 132.811 195.2 131.424 193.792 130.528C192.427 129.589 190.4 129.12 187.712 129.12H174.848V121.568H185.92C188.437 121.568 190.357 121.141 191.68 120.288C193.045 119.392 193.728 118.048 193.728 116.256C193.728 114.507 193.045 113.205 191.68 112.352C190.357 111.456 188.437 111.008 185.92 111.008H175.616V140.192ZM234.154 148.768C227.796 148.768 222.826 146.997 219.242 143.456C215.658 139.915 213.866 134.859 213.866 128.288V103.2H224.234V127.904C224.234 132.171 225.108 135.243 226.858 137.12C228.607 138.997 231.06 139.936 234.218 139.936C237.375 139.936 239.828 138.997 241.578 137.12C243.327 135.243 244.201 132.171 244.201 127.904V103.2H254.442V128.288C254.442 134.859 252.65 139.915 249.066 143.456C245.482 146.997 240.511 148.768 234.154 148.768ZM286.319 148.768C282.778 148.768 279.514 148.213 276.527 147.104C273.583 145.952 271.002 144.331 268.783 142.24C266.607 140.149 264.9 137.696 263.663 134.88C262.468 132.064 261.871 128.971 261.871 125.6C261.871 122.229 262.468 119.136 263.663 116.32C264.9 113.504 266.628 111.051 268.847 108.96C271.066 106.869 273.668 105.269 276.655 104.16C279.642 103.008 282.927 102.432 286.511 102.432C290.479 102.432 294.042 103.093 297.199 104.416C300.399 105.739 303.087 107.659 305.263 110.176L298.607 116.32C296.986 114.613 295.215 113.355 293.295 112.544C291.375 111.691 289.284 111.264 287.023 111.264C284.847 111.264 282.863 111.605 281.071 112.288C279.279 112.971 277.722 113.952 276.399 115.232C275.119 116.512 274.116 118.027 273.391 119.776C272.708 121.525 272.367 123.467 272.367 125.6C272.367 127.691 272.708 129.611 273.391 131.36C274.116 133.109 275.119 134.645 276.399 135.968C277.722 137.248 279.258 138.229 281.007 138.912C282.799 139.595 284.762 139.936 286.895 139.936C288.943 139.936 290.927 139.616 292.847 138.976C294.81 138.293 296.708 137.163 298.543 135.584L304.431 143.072C301.999 144.907 299.162 146.315 295.919 147.296C292.719 148.277 289.519 148.768 286.319 148.768ZM294.959 141.728V124.896H304.431V143.072L294.959 141.728ZM314.062 148V103.2H322.638L341.71 134.816H337.166L355.918 103.2H364.43L364.558 148H354.83L354.766 118.112H356.558L341.582 143.264H336.91L321.614 118.112H323.79V148H314.062ZM369.299 148L389.267 103.2H399.507L419.539 148H408.659L392.275 108.448H396.371L379.923 148H369.299ZM379.283 138.4L382.035 130.528H405.075L407.891 138.4H379.283ZM433.467 137.76L432.891 125.792L454.331 103.2H465.851L446.523 124L440.763 130.144L433.467 137.76ZM424.187 148V103.2H434.491V148H424.187ZM454.843 148L438.907 128.48L445.691 121.12L466.939 148H454.843ZM481.098 121.248H502.666V129.312H481.098V121.248ZM481.866 139.68H506.25V148H471.562V103.2H505.418V111.52H481.866V139.68ZM514.5 148V103.2H533.892C537.902 103.2 541.358 103.861 544.26 105.184C547.161 106.464 549.401 108.32 550.98 110.752C552.558 113.184 553.348 116.085 553.348 119.456C553.348 122.784 552.558 125.664 550.98 128.096C549.401 130.485 547.161 132.32 544.26 133.6C541.358 134.88 537.902 135.52 533.892 135.52H520.26L524.868 130.976V148H514.5ZM542.979 148L531.78 131.744H542.852L554.18 148H542.979ZM524.868 132.128L520.26 127.264H533.316C536.516 127.264 538.905 126.581 540.484 125.216C542.062 123.808 542.852 121.888 542.852 119.456C542.852 116.981 542.062 115.061 540.484 113.696C538.905 112.331 536.516 111.648 533.316 111.648H520.26L524.868 106.72V132.128ZM576.282 148.768C572.698 148.768 569.263 148.299 565.978 147.36C562.693 146.379 560.047 145.12 558.042 143.584L561.562 135.776C563.482 137.141 565.743 138.272 568.346 139.168C570.991 140.021 573.658 140.448 576.346 140.448C578.394 140.448 580.037 140.256 581.274 139.872C582.554 139.445 583.493 138.869 584.09 138.144C584.687 137.419 584.986 136.587 584.986 135.648C584.986 134.453 584.517 133.515 583.578 132.832C582.639 132.107 581.402 131.531 579.866 131.104C578.33 130.635 576.623 130.208 574.746 129.824C572.911 129.397 571.055 128.885 569.178 128.288C567.343 127.691 565.658 126.923 564.122 125.984C562.586 125.045 561.327 123.808 560.346 122.272C559.407 120.736 558.938 118.773 558.938 116.384C558.938 113.824 559.621 111.499 560.986 109.408C562.394 107.275 564.485 105.589 567.258 104.352C570.074 103.072 573.594 102.432 577.818 102.432C580.634 102.432 583.407 102.773 586.138 103.456C588.869 104.096 591.279 105.077 593.37 106.4L590.17 114.272C588.079 113.077 585.989 112.203 583.898 111.648C581.807 111.051 579.759 110.752 577.754 110.752C575.749 110.752 574.106 110.987 572.826 111.456C571.546 111.925 570.629 112.544 570.074 113.312C569.519 114.037 569.242 114.891 569.242 115.872C569.242 117.024 569.711 117.963 570.65 118.688C571.589 119.371 572.826 119.925 574.362 120.352C575.898 120.779 577.583 121.205 579.418 121.632C581.295 122.059 583.151 122.549 584.986 123.104C586.863 123.659 588.57 124.405 590.106 125.344C591.642 126.283 592.879 127.52 593.818 129.056C594.799 130.592 595.29 132.533 595.29 134.88C595.29 137.397 594.586 139.701 593.178 141.792C591.77 143.883 589.658 145.568 586.842 146.848C584.069 148.128 580.549 148.768 576.282 148.768ZM602.375 132.448L600.391 103.2H612.295L610.311 132.448H602.375ZM606.343 148.512C604.551 148.512 603.079 147.936 601.927 146.784C600.775 145.632 600.199 144.267 600.199 142.688C600.199 141.067 600.775 139.723 601.927 138.656C603.079 137.547 604.551 136.992 606.343 136.992C608.177 136.992 609.649 137.547 610.759 138.656C611.911 139.723 612.487 141.067 612.487 142.688C612.487 144.267 611.911 145.632 610.759 146.784C609.649 147.936 608.177 148.512 606.343 148.512Z" fill="white"/>
<circle cx="725" cy="50" r="25" fill="white"/>
<line y1="-2.5" x2="37.7264" y2="-2.5" transform="matrix(0.670194 -0.742186 0.788609 0.614895 714.716 66)" stroke="#FF0000" stroke-width="5"/>
<line y1="-2.5" x2="37.4868" y2="-2.5" transform="matrix(0.676217 0.736703 -0.783696 0.621144 712 38)" stroke="#FF0000" stroke-width="5"/>
</svg>
